#!OML:ASF X:\für Bonn\!DataBase\2005_08_10_Bjorn_Final\c3d\bjorn.ASF
:FULLY-SPECIFIED
:DEGREES
114
root 1.00562 18.5133 4.30005 -217.134 -42.9379 202.418
lowerback 38.0325 -0.266054 -0.419545
upperback 23.5029 -7.47073 0.64083
thorax 7.65123 -6.83468 2.44791
lowerneck -11.1919 -8.89462 -2.14805
upperneck -4.09838 -13.5882 23.5449
head 2.59568 -7.07425 6.59032
rclavicle 1.03368e-013 4.45278e-014
rhumerus -37.6284 -1.01709 -82.7685
rradius 19.4086
rwrist 18.0687
rhand -3.83182 12.9779
rfingers 7.12502
rthumb 21.9154 -15.8008
lclavicle 1.03368e-013 4.45278e-014
lhumerus 69.3312 -21.4477 75.5671
lradius 108.341
lwrist 2.39735
lhand -53.9831 -17.9574
lfingers 7.12502
lthumb -26.4071 10.2234
rfemur -90.7351 -9.74686 25.2343
rtibia 131.991
rfoot 9.92691 21.9761
rtoes -16.3095
lfemur 0.700231 -18.3872 -8.46807
ltibia 40.2077
lfoot -7.22768 -23.8387
ltoes 18.7555
115
root 0.990868 18.5134 4.30436 -216.859 -42.7355 202.137
lowerback 37.7333 -0.262856 -0.446714
upperback 23.5128 -7.46813 0.678411
thorax 7.76283 -6.83697 2.47628
lowerneck -11.3896 -8.96644 -2.15307
upperneck -4.14006 -13.6937 23.5208
head 2.62809 -7.12097 6.56404
rclavicle -2.38542e-014 -5.88403e-014
rhumerus -37.3194 -1.251 -82.5835
rradius 19.3652
rwrist 18.1505
rhand -3.93624 13.0617
rfingers 7.12502
rthumb 21.8152 -15.7288
lclavicle -2.38542e-014 -5.88403e-014
lhumerus 69.0634 -21.3607 75.8686
lradius 108.177
lwrist 2.79674
lhand -54.4249 -18.0249
lfingers 7.12502
lthumb -26.8299 10.0917
rfemur -90.4563 -9.84243 25.202
rtibia 131.903
rfoot 10.1611 21.9749
rtoes -16.1914
lfemur 0.75424 -18.2141 -8.60505
ltibia 40.1715
lfoot -7.33113 -23.701
ltoes 18.6789
116
root 0.97478 18.5185 4.30917 -216.579 -42.5437 201.825
lowerback 37.4373 -0.282383 -0.462061
upperback 23.5219 -7.48712 0.666486
thorax 7.86707 -6.84247 2.45238
lowerneck -11.6283 -9.02867 -2.05071
upperneck -4.10801 -13.8071 23.4105
head 2.67387 -7.16368 6.49009
rclavicle -3.02153e-014 3.33958e-014
rhumerus -37.0024 -1.52761 -82.4475
rradius 19.2469
rwrist 18.3422
rhand -4.07154 13.2482
rfingers 7.12502
rthumb 21.6853 -15.5573
lclavicle -3.02153e-014 3.33958e-014
lhumerus 68.8109 -21.2767 76.1942
lradius 107.915
lwrist 3.14387
lhand -54.7418 -17.9986
lfingers 7.12502
lthumb -27.1331 10.0711
rfemur -90.0776 -9.98896 25.1129
rtibia 131.771
rfoot 10.401 21.956
rtoes -15.3071
lfemur 0.867141 -18.0295 -8.77759
ltibia 40.051
lfoot -7.34197 -23.5438
ltoes 18.6669
117
root 0.957806 18.5272 4.31306 -216.246 -42.355 201.465
lowerback 37.0996 -0.295115 -0.530598
upperback 23.5115 -7.50161 0.668732
thorax 7.96821 -6.84869 2.46875
lowerneck -11.7975 -9.07957 -1.99119
upperneck -4.07421 -13.8879 23.2765
head 2.70492 -7.19085 6.42249
rclavicle -3.81667e-014 -3.33958e-014
rhumerus -36.7481 -1.60874 -82.3589
rradius 19.184
rwrist 18.3565
rhand -4.18164 13.3933
rfingers 7.12502
rthumb 21.5795 -15.4244
lclavicle -3.81667e-014 -3.33958e-014
lhumerus 68.5902 -21.2097 76.5913
lradius 107.528
lwrist 3.41589
lhand -54.941 -18.0167
lfingers 7.12502
lthumb -27.3237 10.0231
rfemur -89.6606 -10.1502 24.9954
rtibia 131.62
rfoot 10.4968 21.8911
rtoes -14.4574
lfemur 1.01466 -17.8152 -8.98073
ltibia 39.8404
lfoot -7.36502 -23.3772
ltoes 18.6121
118
root 0.9419 18.5421 4.31699 -215.904 -42.1562 201.103
lowerback 36.7257 -0.321534 -0.604658
upperback 23.5086 -7.53417 0.655231
thorax 8.09086 -6.86313 2.47164
lowerneck -11.921 -9.11804 -1.91101
upperneck -4.05903 -13.9451 23.1099
head 2.71498 -7.21093 6.34703
rclavicle -1.90833e-014 1.19271e-013
rhumerus -36.53 -1.52534 -82.407
rradius 19.2158
rwrist 18.2201
rhand -4.25974 13.3821
rfingers 7.12502
rthumb 21.5045 -15.4442
lclavicle -1.90833e-014 1.19271e-013
lhumerus 68.3689 -21.0815 76.9515
lradius 107.123
lwrist 3.68281
lhand -55.0846 -17.9188
lfingers 7.12502
lthumb -27.4611 10.0992
rfemur -89.1767 -10.2775 24.8717
rtibia 131.429
rfoot 10.4002 21.776
rtoes -13.7328
lfemur 1.20237 -17.5703 -9.16841
ltibia 39.5265
lfoot -7.32084 -23.2104
ltoes 18.5252
119
root 0.925608 18.5613 4.32 -215.535 -41.9635 200.747
lowerback 36.2959 -0.365721 -0.692822
upperback 23.4882 -7.5787 0.648269
thorax 8.21562 -6.88025 2.4893
lowerneck -11.8915 -9.12217 -1.83137
upperneck -4.17087 -13.924 22.9272
head 2.6506 -7.21285 6.2858
rclavicle -5.40694e-014 -6.36111e-015
rhumerus -36.3731 -1.28388 -82.5173
rradius 19.321
rwrist 17.8994
rhand -4.20673 13.3167
rfingers 7.12502
rthumb 21.5554 -15.5037
lclavicle -5.40694e-014 -6.36111e-015
lhumerus 68.0991 -20.9024 77.2476
lradius 106.773
lwrist 3.89031
lhand -55.2208 -17.9518
lfingers 7.12502
lthumb -27.5913 10.0455
rfemur -88.6415 -10.3999 24.7459
rtibia 131.188
rfoot 10.2016 21.5118
rtoes -13.1564
lfemur 1.41622 -17.3467 -9.3519
ltibia 39.1007
lfoot -7.24684 -23.021
ltoes 18.3517
120
root 0.909254 18.5886 4.32326 -215.118 -41.7643 200.346
lowerback 35.819 -0.417467 -0.765929
upperback 23.4553 -7.61417 0.606223
thorax 8.3368 -6.88165 2.45813
lowerneck -11.7222 -9.12758 -1.74322
upperneck -4.34547 -13.8874 22.7542
head 2.54287 -7.21988 6.23625
rclavicle 7.15625e-014 -6.67916e-014
rhumerus -36.3137 -0.800065 -82.8211
rradius 19.523
rwrist 17.1553
rhand -4.10114 13.1154
rfingers 7.12502
rthumb 21.6568 -15.6934
lclavicle 7.15625e-014 -6.67916e-014
lhumerus 67.7085 -20.7498 77.4382
lradius 106.487
lwrist 4.11685
lhand -55.2405 -18.4268
lfingers 7.12502
lthumb -27.6101 9.5675
rfemur -88.0138 -10.4498 24.5778
rtibia 130.888
rfoot 9.84016 21.1764
rtoes -13.0216
lfemur 1.68921 -17.1088 -9.56755
ltibia 38.5344
lfoot -7.08987 -22.8157
ltoes 18.3432
121
root 0.892385 18.623 4.32559 -214.678 -41.6182 199.951
lowerback 35.2824 -0.499534 -0.866697
upperback 23.422 -7.68709 0.56847
thorax 8.48605 -6.90265 2.44888
lowerneck -11.5398 -9.12079 -1.69509
upperneck -4.51485 -13.8269 22.5754
head 2.43426 -7.21344 6.19439
rclavicle -3.97569e-014 -3.49861e-014
rhumerus -36.2107 -0.350756 -83.1178
rradius 19.6535
rwrist 16.2959
rhand -3.98649 12.9712
rfingers 7.12502
rthumb 21.7669 -15.8248
lclavicle -3.97569e-014 -3.49861e-014
lhumerus 67.2579 -20.5339 77.5976
lradius 106.228
lwrist 4.34401
lhand -55.2129 -18.8768
lfingers 7.12502
lthumb -27.5837 9.12175
rfemur -87.3266 -10.5659 24.3819
rtibia 130.535
rfoot 9.32925 20.7385
rtoes -13.1616
lfemur 2.00182 -16.9387 -9.8097
ltibia 37.8194
lfoot -6.84453 -22.5827
ltoes 18.3758
